<svg xmlns="http://www.w3.org/2000/svg" viewBox="0 0 1572 558" role="img" aria-labelledby="title description">
<title id="title">Long-form periodic table</title>
<desc id="description">A 32-column periodic table with the lanthanoids and actinoids inserted into periods six and seven.</desc>
<rect width="100%" height="100%" fill="white"/>
<g font-family="Arial, Helvetica, sans-serif">
<text x="786.0" y="31" text-anchor="middle" font-size="25" font-weight="700" fill="#222">Long-form periodic table</text>
<text x="57" y="79" text-anchor="end" font-size="12" fill="#555">group</text>
<text x="95.0" y="79" text-anchor="middle" font-size="12" font-weight="700" fill="#555">1</text>
<text x="141.0" y="79" text-anchor="middle" font-size="12" font-weight="700" fill="#555">2</text>
<text x="831.0" y="79" text-anchor="middle" font-size="12" font-weight="700" fill="#555">3</text>
<text x="877.0" y="79" text-anchor="middle" font-size="12" font-weight="700" fill="#555">4</text>
<text x="923.0" y="79" text-anchor="middle" font-size="12" font-weight="700" fill="#555">5</text>
<text x="969.0" y="79" text-anchor="middle" font-size="12" font-weight="700" fill="#555">6</text>
<text x="1015.0" y="79" text-anchor="middle" font-size="12" font-weight="700" fill="#555">7</text>
<text x="1061.0" y="79" text-anchor="middle" font-size="12" font-weight="700" fill="#555">8</text>
<text x="1107.0" y="79" text-anchor="middle" font-size="12" font-weight="700" fill="#555">9</text>
<text x="1153.0" y="79" text-anchor="middle" font-size="12" font-weight="700" fill="#555">10</text>
<text x="1199.0" y="79" text-anchor="middle" font-size="12" font-weight="700" fill="#555">11</text>
<text x="1245.0" y="79" text-anchor="middle" font-size="12" font-weight="700" fill="#555">12</text>
<text x="1291.0" y="79" text-anchor="middle" font-size="12" font-weight="700" fill="#555">13</text>
<text x="1337.0" y="79" text-anchor="middle" font-size="12" font-weight="700" fill="#555">14</text>
<text x="1383.0" y="79" text-anchor="middle" font-size="12" font-weight="700" fill="#555">15</text>
<text x="1429.0" y="79" text-anchor="middle" font-size="12" font-weight="700" fill="#555">16</text>
<text x="1475.0" y="79" text-anchor="middle" font-size="12" font-weight="700" fill="#555">17</text>
<text x="1521.0" y="79" text-anchor="middle" font-size="12" font-weight="700" fill="#555">18</text>
<line x1="168" y1="75" x2="804" y2="75" stroke="#9475cd" stroke-width="3"/>
<text x="486.0" y="66" text-anchor="middle" font-size="12" font-weight="700" fill="#7255aa">14 f-filling positions</text>
<text x="57" y="123.0" text-anchor="end" font-size="13" font-weight="700" fill="#555">1</text>
<g><title>1: Hydrogen</title>
<rect x="73" y="93" width="44" height="52" rx="3" fill="#4269d0" stroke="white" stroke-width="1.5"/>
<text x="77" y="105" font-size="9" fill="white">1</text>
<text x="95.0" y="128" text-anchor="middle" font-size="20" font-weight="700" fill="white">H</text>
</g>
<g><title>2: Helium</title>
<rect x="1499" y="93" width="44" height="52" rx="3" fill="#4269d0" stroke="white" stroke-width="1.5"/>
<text x="1503" y="105" font-size="9" fill="white">2</text>
<text x="1521.0" y="128" text-anchor="middle" font-size="20" font-weight="700" fill="white">He</text>
</g>
<text x="57" y="177.0" text-anchor="end" font-size="13" font-weight="700" fill="#555">2</text>
<g><title>3: Lithium</title>
<rect x="73" y="147" width="44" height="52" rx="3" fill="#4269d0" stroke="white" stroke-width="1.5"/>
<text x="77" y="159" font-size="9" fill="white">3</text>
<text x="95.0" y="182" text-anchor="middle" font-size="20" font-weight="700" fill="white">Li</text>
</g>
<g><title>4: Beryllium</title>
<rect x="119" y="147" width="44" height="52" rx="3" fill="#4269d0" stroke="white" stroke-width="1.5"/>
<text x="123" y="159" font-size="9" fill="white">4</text>
<text x="141.0" y="182" text-anchor="middle" font-size="20" font-weight="700" fill="white">Be</text>
</g>
<g><title>5: Boron</title>
<rect x="1269" y="147" width="44" height="52" rx="3" fill="#30a8b1" stroke="white" stroke-width="1.5"/>
<text x="1273" y="159" font-size="9" fill="white">5</text>
<text x="1291.0" y="182" text-anchor="middle" font-size="20" font-weight="700" fill="white">B</text>
</g>
<g><title>6: Carbon</title>
<rect x="1315" y="147" width="44" height="52" rx="3" fill="#30a8b1" stroke="white" stroke-width="1.5"/>
<text x="1319" y="159" font-size="9" fill="white">6</text>
<text x="1337.0" y="182" text-anchor="middle" font-size="20" font-weight="700" fill="white">C</text>
</g>
<g><title>7: Nitrogen</title>
<rect x="1361" y="147" width="44" height="52" rx="3" fill="#30a8b1" stroke="white" stroke-width="1.5"/>
<text x="1365" y="159" font-size="9" fill="white">7</text>
<text x="1383.0" y="182" text-anchor="middle" font-size="20" font-weight="700" fill="white">N</text>
</g>
<g><title>8: Oxygen</title>
<rect x="1407" y="147" width="44" height="52" rx="3" fill="#30a8b1" stroke="white" stroke-width="1.5"/>
<text x="1411" y="159" font-size="9" fill="white">8</text>
<text x="1429.0" y="182" text-anchor="middle" font-size="20" font-weight="700" fill="white">O</text>
</g>
<g><title>9: Fluorine</title>
<rect x="1453" y="147" width="44" height="52" rx="3" fill="#30a8b1" stroke="white" stroke-width="1.5"/>
<text x="1457" y="159" font-size="9" fill="white">9</text>
<text x="1475.0" y="182" text-anchor="middle" font-size="20" font-weight="700" fill="white">F</text>
</g>
<g><title>10: Neon</title>
<rect x="1499" y="147" width="44" height="52" rx="3" fill="#30a8b1" stroke="white" stroke-width="1.5"/>
<text x="1503" y="159" font-size="9" fill="white">10</text>
<text x="1521.0" y="182" text-anchor="middle" font-size="20" font-weight="700" fill="white">Ne</text>
</g>
<text x="57" y="231.0" text-anchor="end" font-size="13" font-weight="700" fill="#555">3</text>
<g><title>11: Sodium</title>
<rect x="73" y="201" width="44" height="52" rx="3" fill="#4269d0" stroke="white" stroke-width="1.5"/>
<text x="77" y="213" font-size="9" fill="white">11</text>
<text x="95.0" y="236" text-anchor="middle" font-size="20" font-weight="700" fill="white">Na</text>
</g>
<g><title>12: Magnesium</title>
<rect x="119" y="201" width="44" height="52" rx="3" fill="#4269d0" stroke="white" stroke-width="1.5"/>
<text x="123" y="213" font-size="9" fill="white">12</text>
<text x="141.0" y="236" text-anchor="middle" font-size="20" font-weight="700" fill="white">Mg</text>
</g>
<g><title>13: Aluminum</title>
<rect x="1269" y="201" width="44" height="52" rx="3" fill="#30a8b1" stroke="white" stroke-width="1.5"/>
<text x="1273" y="213" font-size="9" fill="white">13</text>
<text x="1291.0" y="236" text-anchor="middle" font-size="20" font-weight="700" fill="white">Al</text>
</g>
<g><title>14: Silicon</title>
<rect x="1315" y="201" width="44" height="52" rx="3" fill="#30a8b1" stroke="white" stroke-width="1.5"/>
<text x="1319" y="213" font-size="9" fill="white">14</text>
<text x="1337.0" y="236" text-anchor="middle" font-size="20" font-weight="700" fill="white">Si</text>
</g>
<g><title>15: Phosphorus</title>
<rect x="1361" y="201" width="44" height="52" rx="3" fill="#30a8b1" stroke="white" stroke-width="1.5"/>
<text x="1365" y="213" font-size="9" fill="white">15</text>
<text x="1383.0" y="236" text-anchor="middle" font-size="20" font-weight="700" fill="white">P</text>
</g>
<g><title>16: Sulfur</title>
<rect x="1407" y="201" width="44" height="52" rx="3" fill="#30a8b1" stroke="white" stroke-width="1.5"/>
<text x="1411" y="213" font-size="9" fill="white">16</text>
<text x="1429.0" y="236" text-anchor="middle" font-size="20" font-weight="700" fill="white">S</text>
</g>
<g><title>17: Chlorine</title>
<rect x="1453" y="201" width="44" height="52" rx="3" fill="#30a8b1" stroke="white" stroke-width="1.5"/>
<text x="1457" y="213" font-size="9" fill="white">17</text>
<text x="1475.0" y="236" text-anchor="middle" font-size="20" font-weight="700" fill="white">Cl</text>
</g>
<g><title>18: Argon</title>
<rect x="1499" y="201" width="44" height="52" rx="3" fill="#30a8b1" stroke="white" stroke-width="1.5"/>
<text x="1503" y="213" font-size="9" fill="white">18</text>
<text x="1521.0" y="236" text-anchor="middle" font-size="20" font-weight="700" fill="white">Ar</text>
</g>
<text x="57" y="285.0" text-anchor="end" font-size="13" font-weight="700" fill="#555">4</text>
<g><title>19: Potassium</title>
<rect x="73" y="255" width="44" height="52" rx="3" fill="#4269d0" stroke="white" stroke-width="1.5"/>
<text x="77" y="267" font-size="9" fill="white">19</text>
<text x="95.0" y="290" text-anchor="middle" font-size="20" font-weight="700" fill="white">K</text>
</g>
<g><title>20: Calcium</title>
<rect x="119" y="255" width="44" height="52" rx="3" fill="#4269d0" stroke="white" stroke-width="1.5"/>
<text x="123" y="267" font-size="9" fill="white">20</text>
<text x="141.0" y="290" text-anchor="middle" font-size="20" font-weight="700" fill="white">Ca</text>
</g>
<g><title>21: Scandium</title>
<rect x="809" y="255" width="44" height="52" rx="3" fill="#c98a00" stroke="white" stroke-width="1.5"/>
<text x="813" y="267" font-size="9" fill="white">21</text>
<text x="831.0" y="290" text-anchor="middle" font-size="20" font-weight="700" fill="white">Sc</text>
</g>
<g><title>22: Titanium</title>
<rect x="855" y="255" width="44" height="52" rx="3" fill="#c98a00" stroke="white" stroke-width="1.5"/>
<text x="859" y="267" font-size="9" fill="white">22</text>
<text x="877.0" y="290" text-anchor="middle" font-size="20" font-weight="700" fill="white">Ti</text>
</g>
<g><title>23: Vanadium</title>
<rect x="901" y="255" width="44" height="52" rx="3" fill="#c98a00" stroke="white" stroke-width="1.5"/>
<text x="905" y="267" font-size="9" fill="white">23</text>
<text x="923.0" y="290" text-anchor="middle" font-size="20" font-weight="700" fill="white">V</text>
</g>
<g><title>24: Chromium</title>
<rect x="947" y="255" width="44" height="52" rx="3" fill="#c98a00" stroke="white" stroke-width="1.5"/>
<text x="951" y="267" font-size="9" fill="white">24</text>
<text x="969.0" y="290" text-anchor="middle" font-size="20" font-weight="700" fill="white">Cr</text>
</g>
<g><title>25: Manganese</title>
<rect x="993" y="255" width="44" height="52" rx="3" fill="#c98a00" stroke="white" stroke-width="1.5"/>
<text x="997" y="267" font-size="9" fill="white">25</text>
<text x="1015.0" y="290" text-anchor="middle" font-size="20" font-weight="700" fill="white">Mn</text>
</g>
<g><title>26: Iron</title>
<rect x="1039" y="255" width="44" height="52" rx="3" fill="#c98a00" stroke="white" stroke-width="1.5"/>
<text x="1043" y="267" font-size="9" fill="white">26</text>
<text x="1061.0" y="290" text-anchor="middle" font-size="20" font-weight="700" fill="white">Fe</text>
</g>
<g><title>27: Cobalt</title>
<rect x="1085" y="255" width="44" height="52" rx="3" fill="#c98a00" stroke="white" stroke-width="1.5"/>
<text x="1089" y="267" font-size="9" fill="white">27</text>
<text x="1107.0" y="290" text-anchor="middle" font-size="20" font-weight="700" fill="white">Co</text>
</g>
<g><title>28: Nickel</title>
<rect x="1131" y="255" width="44" height="52" rx="3" fill="#c98a00" stroke="white" stroke-width="1.5"/>
<text x="1135" y="267" font-size="9" fill="white">28</text>
<text x="1153.0" y="290" text-anchor="middle" font-size="20" font-weight="700" fill="white">Ni</text>
</g>
<g><title>29: Copper</title>
<rect x="1177" y="255" width="44" height="52" rx="3" fill="#c98a00" stroke="white" stroke-width="1.5"/>
<text x="1181" y="267" font-size="9" fill="white">29</text>
<text x="1199.0" y="290" text-anchor="middle" font-size="20" font-weight="700" fill="white">Cu</text>
</g>
<g><title>30: Zinc</title>
<rect x="1223" y="255" width="44" height="52" rx="3" fill="#c98a00" stroke="white" stroke-width="1.5"/>
<text x="1227" y="267" font-size="9" fill="white">30</text>
<text x="1245.0" y="290" text-anchor="middle" font-size="20" font-weight="700" fill="white">Zn</text>
</g>
<g><title>31: Gallium</title>
<rect x="1269" y="255" width="44" height="52" rx="3" fill="#30a8b1" stroke="white" stroke-width="1.5"/>
<text x="1273" y="267" font-size="9" fill="white">31</text>
<text x="1291.0" y="290" text-anchor="middle" font-size="20" font-weight="700" fill="white">Ga</text>
</g>
<g><title>32: Germanium</title>
<rect x="1315" y="255" width="44" height="52" rx="3" fill="#30a8b1" stroke="white" stroke-width="1.5"/>
<text x="1319" y="267" font-size="9" fill="white">32</text>
<text x="1337.0" y="290" text-anchor="middle" font-size="20" font-weight="700" fill="white">Ge</text>
</g>
<g><title>33: Arsenic</title>
<rect x="1361" y="255" width="44" height="52" rx="3" fill="#30a8b1" stroke="white" stroke-width="1.5"/>
<text x="1365" y="267" font-size="9" fill="white">33</text>
<text x="1383.0" y="290" text-anchor="middle" font-size="20" font-weight="700" fill="white">As</text>
</g>
<g><title>34: Selenium</title>
<rect x="1407" y="255" width="44" height="52" rx="3" fill="#30a8b1" stroke="white" stroke-width="1.5"/>
<text x="1411" y="267" font-size="9" fill="white">34</text>
<text x="1429.0" y="290" text-anchor="middle" font-size="20" font-weight="700" fill="white">Se</text>
</g>
<g><title>35: Bromine</title>
<rect x="1453" y="255" width="44" height="52" rx="3" fill="#30a8b1" stroke="white" stroke-width="1.5"/>
<text x="1457" y="267" font-size="9" fill="white">35</text>
<text x="1475.0" y="290" text-anchor="middle" font-size="20" font-weight="700" fill="white">Br</text>
</g>
<g><title>36: Krypton</title>
<rect x="1499" y="255" width="44" height="52" rx="3" fill="#30a8b1" stroke="white" stroke-width="1.5"/>
<text x="1503" y="267" font-size="9" fill="white">36</text>
<text x="1521.0" y="290" text-anchor="middle" font-size="20" font-weight="700" fill="white">Kr</text>
</g>
<text x="57" y="339.0" text-anchor="end" font-size="13" font-weight="700" fill="#555">5</text>
<g><title>37: Rubidium</title>
<rect x="73" y="309" width="44" height="52" rx="3" fill="#4269d0" stroke="white" stroke-width="1.5"/>
<text x="77" y="321" font-size="9" fill="white">37</text>
<text x="95.0" y="344" text-anchor="middle" font-size="20" font-weight="700" fill="white">Rb</text>
</g>
<g><title>38: Strontium</title>
<rect x="119" y="309" width="44" height="52" rx="3" fill="#4269d0" stroke="white" stroke-width="1.5"/>
<text x="123" y="321" font-size="9" fill="white">38</text>
<text x="141.0" y="344" text-anchor="middle" font-size="20" font-weight="700" fill="white">Sr</text>
</g>
<g><title>39: Yttrium</title>
<rect x="809" y="309" width="44" height="52" rx="3" fill="#c98a00" stroke="white" stroke-width="1.5"/>
<text x="813" y="321" font-size="9" fill="white">39</text>
<text x="831.0" y="344" text-anchor="middle" font-size="20" font-weight="700" fill="white">Y</text>
</g>
<g><title>40: Zirconium</title>
<rect x="855" y="309" width="44" height="52" rx="3" fill="#c98a00" stroke="white" stroke-width="1.5"/>
<text x="859" y="321" font-size="9" fill="white">40</text>
<text x="877.0" y="344" text-anchor="middle" font-size="20" font-weight="700" fill="white">Zr</text>
</g>
<g><title>41: Niobium</title>
<rect x="901" y="309" width="44" height="52" rx="3" fill="#c98a00" stroke="white" stroke-width="1.5"/>
<text x="905" y="321" font-size="9" fill="white">41</text>
<text x="923.0" y="344" text-anchor="middle" font-size="20" font-weight="700" fill="white">Nb</text>
</g>
<g><title>42: Molybdenum</title>
<rect x="947" y="309" width="44" height="52" rx="3" fill="#c98a00" stroke="white" stroke-width="1.5"/>
<text x="951" y="321" font-size="9" fill="white">42</text>
<text x="969.0" y="344" text-anchor="middle" font-size="20" font-weight="700" fill="white">Mo</text>
</g>
<g><title>43: Technetium</title>
<rect x="993" y="309" width="44" height="52" rx="3" fill="#c98a00" stroke="white" stroke-width="1.5"/>
<text x="997" y="321" font-size="9" fill="white">43</text>
<text x="1015.0" y="344" text-anchor="middle" font-size="20" font-weight="700" fill="white">Tc</text>
</g>
<g><title>44: Ruthenium</title>
<rect x="1039" y="309" width="44" height="52" rx="3" fill="#c98a00" stroke="white" stroke-width="1.5"/>
<text x="1043" y="321" font-size="9" fill="white">44</text>
<text x="1061.0" y="344" text-anchor="middle" font-size="20" font-weight="700" fill="white">Ru</text>
</g>
<g><title>45: Rhodium</title>
<rect x="1085" y="309" width="44" height="52" rx="3" fill="#c98a00" stroke="white" stroke-width="1.5"/>
<text x="1089" y="321" font-size="9" fill="white">45</text>
<text x="1107.0" y="344" text-anchor="middle" font-size="20" font-weight="700" fill="white">Rh</text>
</g>
<g><title>46: Palladium</title>
<rect x="1131" y="309" width="44" height="52" rx="3" fill="#c98a00" stroke="white" stroke-width="1.5"/>
<text x="1135" y="321" font-size="9" fill="white">46</text>
<text x="1153.0" y="344" text-anchor="middle" font-size="20" font-weight="700" fill="white">Pd</text>
</g>
<g><title>47: Silver</title>
<rect x="1177" y="309" width="44" height="52" rx="3" fill="#c98a00" stroke="white" stroke-width="1.5"/>
<text x="1181" y="321" font-size="9" fill="white">47</text>
<text x="1199.0" y="344" text-anchor="middle" font-size="20" font-weight="700" fill="white">Ag</text>
</g>
<g><title>48: Cadmium</title>
<rect x="1223" y="309" width="44" height="52" rx="3" fill="#c98a00" stroke="white" stroke-width="1.5"/>
<text x="1227" y="321" font-size="9" fill="white">48</text>
<text x="1245.0" y="344" text-anchor="middle" font-size="20" font-weight="700" fill="white">Cd</text>
</g>
<g><title>49: Indium</title>
<rect x="1269" y="309" width="44" height="52" rx="3" fill="#30a8b1" stroke="white" stroke-width="1.5"/>
<text x="1273" y="321" font-size="9" fill="white">49</text>
<text x="1291.0" y="344" text-anchor="middle" font-size="20" font-weight="700" fill="white">In</text>
</g>
<g><title>50: Tin</title>
<rect x="1315" y="309" width="44" height="52" rx="3" fill="#30a8b1" stroke="white" stroke-width="1.5"/>
<text x="1319" y="321" font-size="9" fill="white">50</text>
<text x="1337.0" y="344" text-anchor="middle" font-size="20" font-weight="700" fill="white">Sn</text>
</g>
<g><title>51: Antimony</title>
<rect x="1361" y="309" width="44" height="52" rx="3" fill="#30a8b1" stroke="white" stroke-width="1.5"/>
<text x="1365" y="321" font-size="9" fill="white">51</text>
<text x="1383.0" y="344" text-anchor="middle" font-size="20" font-weight="700" fill="white">Sb</text>
</g>
<g><title>52: Tellurium</title>
<rect x="1407" y="309" width="44" height="52" rx="3" fill="#30a8b1" stroke="white" stroke-width="1.5"/>
<text x="1411" y="321" font-size="9" fill="white">52</text>
<text x="1429.0" y="344" text-anchor="middle" font-size="20" font-weight="700" fill="white">Te</text>
</g>
<g><title>53: Iodine</title>
<rect x="1453" y="309" width="44" height="52" rx="3" fill="#30a8b1" stroke="white" stroke-width="1.5"/>
<text x="1457" y="321" font-size="9" fill="white">53</text>
<text x="1475.0" y="344" text-anchor="middle" font-size="20" font-weight="700" fill="white">I</text>
</g>
<g><title>54: Xenon</title>
<rect x="1499" y="309" width="44" height="52" rx="3" fill="#30a8b1" stroke="white" stroke-width="1.5"/>
<text x="1503" y="321" font-size="9" fill="white">54</text>
<text x="1521.0" y="344" text-anchor="middle" font-size="20" font-weight="700" fill="white">Xe</text>
</g>
<text x="57" y="393.0" text-anchor="end" font-size="13" font-weight="700" fill="#555">6</text>
<g><title>55: Cesium</title>
<rect x="73" y="363" width="44" height="52" rx="3" fill="#4269d0" stroke="white" stroke-width="1.5"/>
<text x="77" y="375" font-size="9" fill="white">55</text>
<text x="95.0" y="398" text-anchor="middle" font-size="20" font-weight="700" fill="white">Cs</text>
</g>
<g><title>56: Barium</title>
<rect x="119" y="363" width="44" height="52" rx="3" fill="#4269d0" stroke="white" stroke-width="1.5"/>
<text x="123" y="375" font-size="9" fill="white">56</text>
<text x="141.0" y="398" text-anchor="middle" font-size="20" font-weight="700" fill="white">Ba</text>
</g>
<g><title>57: Lanthanum</title>
<rect x="165" y="363" width="44" height="52" rx="3" fill="#c98a00" stroke="white" stroke-width="1.5"/>
<text x="169" y="375" font-size="9" fill="white">57</text>
<text x="187.0" y="398" text-anchor="middle" font-size="20" font-weight="700" fill="white">La</text>
</g>
<g><title>58: Cerium</title>
<rect x="211" y="363" width="44" height="52" rx="3" fill="#9475cd" stroke="white" stroke-width="1.5"/>
<text x="215" y="375" font-size="9" fill="white">58</text>
<text x="233.0" y="398" text-anchor="middle" font-size="20" font-weight="700" fill="white">Ce</text>
</g>
<g><title>59: Praseodymium</title>
<rect x="257" y="363" width="44" height="52" rx="3" fill="#9475cd" stroke="white" stroke-width="1.5"/>
<text x="261" y="375" font-size="9" fill="white">59</text>
<text x="279.0" y="398" text-anchor="middle" font-size="20" font-weight="700" fill="white">Pr</text>
</g>
<g><title>60: Neodymium</title>
<rect x="303" y="363" width="44" height="52" rx="3" fill="#9475cd" stroke="white" stroke-width="1.5"/>
<text x="307" y="375" font-size="9" fill="white">60</text>
<text x="325.0" y="398" text-anchor="middle" font-size="20" font-weight="700" fill="white">Nd</text>
</g>
<g><title>61: Promethium</title>
<rect x="349" y="363" width="44" height="52" rx="3" fill="#9475cd" stroke="white" stroke-width="1.5"/>
<text x="353" y="375" font-size="9" fill="white">61</text>
<text x="371.0" y="398" text-anchor="middle" font-size="20" font-weight="700" fill="white">Pm</text>
</g>
<g><title>62: Samarium</title>
<rect x="395" y="363" width="44" height="52" rx="3" fill="#9475cd" stroke="white" stroke-width="1.5"/>
<text x="399" y="375" font-size="9" fill="white">62</text>
<text x="417.0" y="398" text-anchor="middle" font-size="20" font-weight="700" fill="white">Sm</text>
</g>
<g><title>63: Europium</title>
<rect x="441" y="363" width="44" height="52" rx="3" fill="#9475cd" stroke="white" stroke-width="1.5"/>
<text x="445" y="375" font-size="9" fill="white">63</text>
<text x="463.0" y="398" text-anchor="middle" font-size="20" font-weight="700" fill="white">Eu</text>
</g>
<g><title>64: Gadolinium</title>
<rect x="487" y="363" width="44" height="52" rx="3" fill="#9475cd" stroke="white" stroke-width="1.5"/>
<text x="491" y="375" font-size="9" fill="white">64</text>
<text x="509.0" y="398" text-anchor="middle" font-size="20" font-weight="700" fill="white">Gd</text>
</g>
<g><title>65: Terbium</title>
<rect x="533" y="363" width="44" height="52" rx="3" fill="#9475cd" stroke="white" stroke-width="1.5"/>
<text x="537" y="375" font-size="9" fill="white">65</text>
<text x="555.0" y="398" text-anchor="middle" font-size="20" font-weight="700" fill="white">Tb</text>
</g>
<g><title>66: Dysprosium</title>
<rect x="579" y="363" width="44" height="52" rx="3" fill="#9475cd" stroke="white" stroke-width="1.5"/>
<text x="583" y="375" font-size="9" fill="white">66</text>
<text x="601.0" y="398" text-anchor="middle" font-size="20" font-weight="700" fill="white">Dy</text>
</g>
<g><title>67: Holmium</title>
<rect x="625" y="363" width="44" height="52" rx="3" fill="#9475cd" stroke="white" stroke-width="1.5"/>
<text x="629" y="375" font-size="9" fill="white">67</text>
<text x="647.0" y="398" text-anchor="middle" font-size="20" font-weight="700" fill="white">Ho</text>
</g>
<g><title>68: Erbium</title>
<rect x="671" y="363" width="44" height="52" rx="3" fill="#9475cd" stroke="white" stroke-width="1.5"/>
<text x="675" y="375" font-size="9" fill="white">68</text>
<text x="693.0" y="398" text-anchor="middle" font-size="20" font-weight="700" fill="white">Er</text>
</g>
<g><title>69: Thulium</title>
<rect x="717" y="363" width="44" height="52" rx="3" fill="#9475cd" stroke="white" stroke-width="1.5"/>
<text x="721" y="375" font-size="9" fill="white">69</text>
<text x="739.0" y="398" text-anchor="middle" font-size="20" font-weight="700" fill="white">Tm</text>
</g>
<g><title>70: Ytterbium</title>
<rect x="763" y="363" width="44" height="52" rx="3" fill="#9475cd" stroke="white" stroke-width="1.5"/>
<text x="767" y="375" font-size="9" fill="white">70</text>
<text x="785.0" y="398" text-anchor="middle" font-size="20" font-weight="700" fill="white">Yb</text>
</g>
<g><title>71: Lutetium</title>
<rect x="809" y="363" width="44" height="52" rx="3" fill="#9475cd" stroke="white" stroke-width="1.5"/>
<text x="813" y="375" font-size="9" fill="white">71</text>
<text x="831.0" y="398" text-anchor="middle" font-size="20" font-weight="700" fill="white">Lu</text>
</g>
<g><title>72: Hafnium</title>
<rect x="855" y="363" width="44" height="52" rx="3" fill="#c98a00" stroke="white" stroke-width="1.5"/>
<text x="859" y="375" font-size="9" fill="white">72</text>
<text x="877.0" y="398" text-anchor="middle" font-size="20" font-weight="700" fill="white">Hf</text>
</g>
<g><title>73: Tantalum</title>
<rect x="901" y="363" width="44" height="52" rx="3" fill="#c98a00" stroke="white" stroke-width="1.5"/>
<text x="905" y="375" font-size="9" fill="white">73</text>
<text x="923.0" y="398" text-anchor="middle" font-size="20" font-weight="700" fill="white">Ta</text>
</g>
<g><title>74: Tungsten</title>
<rect x="947" y="363" width="44" height="52" rx="3" fill="#c98a00" stroke="white" stroke-width="1.5"/>
<text x="951" y="375" font-size="9" fill="white">74</text>
<text x="969.0" y="398" text-anchor="middle" font-size="20" font-weight="700" fill="white">W</text>
</g>
<g><title>75: Rhenium</title>
<rect x="993" y="363" width="44" height="52" rx="3" fill="#c98a00" stroke="white" stroke-width="1.5"/>
<text x="997" y="375" font-size="9" fill="white">75</text>
<text x="1015.0" y="398" text-anchor="middle" font-size="20" font-weight="700" fill="white">Re</text>
</g>
<g><title>76: Osmium</title>
<rect x="1039" y="363" width="44" height="52" rx="3" fill="#c98a00" stroke="white" stroke-width="1.5"/>
<text x="1043" y="375" font-size="9" fill="white">76</text>
<text x="1061.0" y="398" text-anchor="middle" font-size="20" font-weight="700" fill="white">Os</text>
</g>
<g><title>77: Iridium</title>
<rect x="1085" y="363" width="44" height="52" rx="3" fill="#c98a00" stroke="white" stroke-width="1.5"/>
<text x="1089" y="375" font-size="9" fill="white">77</text>
<text x="1107.0" y="398" text-anchor="middle" font-size="20" font-weight="700" fill="white">Ir</text>
</g>
<g><title>78: Platinum</title>
<rect x="1131" y="363" width="44" height="52" rx="3" fill="#c98a00" stroke="white" stroke-width="1.5"/>
<text x="1135" y="375" font-size="9" fill="white">78</text>
<text x="1153.0" y="398" text-anchor="middle" font-size="20" font-weight="700" fill="white">Pt</text>
</g>
<g><title>79: Gold</title>
<rect x="1177" y="363" width="44" height="52" rx="3" fill="#c98a00" stroke="white" stroke-width="1.5"/>
<text x="1181" y="375" font-size="9" fill="white">79</text>
<text x="1199.0" y="398" text-anchor="middle" font-size="20" font-weight="700" fill="white">Au</text>
</g>
<g><title>80: Mercury</title>
<rect x="1223" y="363" width="44" height="52" rx="3" fill="#c98a00" stroke="white" stroke-width="1.5"/>
<text x="1227" y="375" font-size="9" fill="white">80</text>
<text x="1245.0" y="398" text-anchor="middle" font-size="20" font-weight="700" fill="white">Hg</text>
</g>
<g><title>81: Thallium</title>
<rect x="1269" y="363" width="44" height="52" rx="3" fill="#30a8b1" stroke="white" stroke-width="1.5"/>
<text x="1273" y="375" font-size="9" fill="white">81</text>
<text x="1291.0" y="398" text-anchor="middle" font-size="20" font-weight="700" fill="white">Tl</text>
</g>
<g><title>82: Lead</title>
<rect x="1315" y="363" width="44" height="52" rx="3" fill="#30a8b1" stroke="white" stroke-width="1.5"/>
<text x="1319" y="375" font-size="9" fill="white">82</text>
<text x="1337.0" y="398" text-anchor="middle" font-size="20" font-weight="700" fill="white">Pb</text>
</g>
<g><title>83: Bismuth</title>
<rect x="1361" y="363" width="44" height="52" rx="3" fill="#30a8b1" stroke="white" stroke-width="1.5"/>
<text x="1365" y="375" font-size="9" fill="white">83</text>
<text x="1383.0" y="398" text-anchor="middle" font-size="20" font-weight="700" fill="white">Bi</text>
</g>
<g><title>84: Polonium</title>
<rect x="1407" y="363" width="44" height="52" rx="3" fill="#30a8b1" stroke="white" stroke-width="1.5"/>
<text x="1411" y="375" font-size="9" fill="white">84</text>
<text x="1429.0" y="398" text-anchor="middle" font-size="20" font-weight="700" fill="white">Po</text>
</g>
<g><title>85: Astatine</title>
<rect x="1453" y="363" width="44" height="52" rx="3" fill="#30a8b1" stroke="white" stroke-width="1.5"/>
<text x="1457" y="375" font-size="9" fill="white">85</text>
<text x="1475.0" y="398" text-anchor="middle" font-size="20" font-weight="700" fill="white">At</text>
</g>
<g><title>86: Radon</title>
<rect x="1499" y="363" width="44" height="52" rx="3" fill="#30a8b1" stroke="white" stroke-width="1.5"/>
<text x="1503" y="375" font-size="9" fill="white">86</text>
<text x="1521.0" y="398" text-anchor="middle" font-size="20" font-weight="700" fill="white">Rn</text>
</g>
<text x="57" y="447.0" text-anchor="end" font-size="13" font-weight="700" fill="#555">7</text>
<g><title>87: Francium</title>
<rect x="73" y="417" width="44" height="52" rx="3" fill="#4269d0" stroke="white" stroke-width="1.5"/>
<text x="77" y="429" font-size="9" fill="white">87</text>
<text x="95.0" y="452" text-anchor="middle" font-size="20" font-weight="700" fill="white">Fr</text>
</g>
<g><title>88: Radium</title>
<rect x="119" y="417" width="44" height="52" rx="3" fill="#4269d0" stroke="white" stroke-width="1.5"/>
<text x="123" y="429" font-size="9" fill="white">88</text>
<text x="141.0" y="452" text-anchor="middle" font-size="20" font-weight="700" fill="white">Ra</text>
</g>
<g><title>89: Actinium</title>
<rect x="165" y="417" width="44" height="52" rx="3" fill="#c98a00" stroke="white" stroke-width="1.5"/>
<text x="169" y="429" font-size="9" fill="white">89</text>
<text x="187.0" y="452" text-anchor="middle" font-size="20" font-weight="700" fill="white">Ac</text>
</g>
<g><title>90: Thorium</title>
<rect x="211" y="417" width="44" height="52" rx="3" fill="#9475cd" stroke="white" stroke-width="1.5"/>
<text x="215" y="429" font-size="9" fill="white">90</text>
<text x="233.0" y="452" text-anchor="middle" font-size="20" font-weight="700" fill="white">Th</text>
</g>
<g><title>91: Protactinium</title>
<rect x="257" y="417" width="44" height="52" rx="3" fill="#9475cd" stroke="white" stroke-width="1.5"/>
<text x="261" y="429" font-size="9" fill="white">91</text>
<text x="279.0" y="452" text-anchor="middle" font-size="20" font-weight="700" fill="white">Pa</text>
</g>
<g><title>92: Uranium</title>
<rect x="303" y="417" width="44" height="52" rx="3" fill="#9475cd" stroke="white" stroke-width="1.5"/>
<text x="307" y="429" font-size="9" fill="white">92</text>
<text x="325.0" y="452" text-anchor="middle" font-size="20" font-weight="700" fill="white">U</text>
</g>
<g><title>93: Neptunium</title>
<rect x="349" y="417" width="44" height="52" rx="3" fill="#9475cd" stroke="white" stroke-width="1.5"/>
<text x="353" y="429" font-size="9" fill="white">93</text>
<text x="371.0" y="452" text-anchor="middle" font-size="20" font-weight="700" fill="white">Np</text>
</g>
<g><title>94: Plutonium</title>
<rect x="395" y="417" width="44" height="52" rx="3" fill="#9475cd" stroke="white" stroke-width="1.5"/>
<text x="399" y="429" font-size="9" fill="white">94</text>
<text x="417.0" y="452" text-anchor="middle" font-size="20" font-weight="700" fill="white">Pu</text>
</g>
<g><title>95: Americium</title>
<rect x="441" y="417" width="44" height="52" rx="3" fill="#9475cd" stroke="white" stroke-width="1.5"/>
<text x="445" y="429" font-size="9" fill="white">95</text>
<text x="463.0" y="452" text-anchor="middle" font-size="20" font-weight="700" fill="white">Am</text>
</g>
<g><title>96: Curium</title>
<rect x="487" y="417" width="44" height="52" rx="3" fill="#9475cd" stroke="white" stroke-width="1.5"/>
<text x="491" y="429" font-size="9" fill="white">96</text>
<text x="509.0" y="452" text-anchor="middle" font-size="20" font-weight="700" fill="white">Cm</text>
</g>
<g><title>97: Berkelium</title>
<rect x="533" y="417" width="44" height="52" rx="3" fill="#9475cd" stroke="white" stroke-width="1.5"/>
<text x="537" y="429" font-size="9" fill="white">97</text>
<text x="555.0" y="452" text-anchor="middle" font-size="20" font-weight="700" fill="white">Bk</text>
</g>
<g><title>98: Californium</title>
<rect x="579" y="417" width="44" height="52" rx="3" fill="#9475cd" stroke="white" stroke-width="1.5"/>
<text x="583" y="429" font-size="9" fill="white">98</text>
<text x="601.0" y="452" text-anchor="middle" font-size="20" font-weight="700" fill="white">Cf</text>
</g>
<g><title>99: Einsteinium</title>
<rect x="625" y="417" width="44" height="52" rx="3" fill="#9475cd" stroke="white" stroke-width="1.5"/>
<text x="629" y="429" font-size="9" fill="white">99</text>
<text x="647.0" y="452" text-anchor="middle" font-size="20" font-weight="700" fill="white">Es</text>
</g>
<g><title>100: Fermium</title>
<rect x="671" y="417" width="44" height="52" rx="3" fill="#9475cd" stroke="white" stroke-width="1.5"/>
<text x="675" y="429" font-size="9" fill="white">100</text>
<text x="693.0" y="452" text-anchor="middle" font-size="20" font-weight="700" fill="white">Fm</text>
</g>
<g><title>101: Mendelevium</title>
<rect x="717" y="417" width="44" height="52" rx="3" fill="#9475cd" stroke="white" stroke-width="1.5"/>
<text x="721" y="429" font-size="9" fill="white">101</text>
<text x="739.0" y="452" text-anchor="middle" font-size="20" font-weight="700" fill="white">Md</text>
</g>
<g><title>102: Nobelium</title>
<rect x="763" y="417" width="44" height="52" rx="3" fill="#9475cd" stroke="white" stroke-width="1.5"/>
<text x="767" y="429" font-size="9" fill="white">102</text>
<text x="785.0" y="452" text-anchor="middle" font-size="20" font-weight="700" fill="white">No</text>
</g>
<g><title>103: Lawrencium</title>
<rect x="809" y="417" width="44" height="52" rx="3" fill="#9475cd" stroke="white" stroke-width="1.5"/>
<text x="813" y="429" font-size="9" fill="white">103</text>
<text x="831.0" y="452" text-anchor="middle" font-size="20" font-weight="700" fill="white">Lr</text>
</g>
<g><title>104: Rutherfordium</title>
<rect x="855" y="417" width="44" height="52" rx="3" fill="#c98a00" stroke="white" stroke-width="1.5"/>
<text x="859" y="429" font-size="9" fill="white">104</text>
<text x="877.0" y="452" text-anchor="middle" font-size="20" font-weight="700" fill="white">Rf</text>
</g>
<g><title>105: Dubnium</title>
<rect x="901" y="417" width="44" height="52" rx="3" fill="#c98a00" stroke="white" stroke-width="1.5"/>
<text x="905" y="429" font-size="9" fill="white">105</text>
<text x="923.0" y="452" text-anchor="middle" font-size="20" font-weight="700" fill="white">Db</text>
</g>
<g><title>106: Seaborgium</title>
<rect x="947" y="417" width="44" height="52" rx="3" fill="#c98a00" stroke="white" stroke-width="1.5"/>
<text x="951" y="429" font-size="9" fill="white">106</text>
<text x="969.0" y="452" text-anchor="middle" font-size="20" font-weight="700" fill="white">Sg</text>
</g>
<g><title>107: Bohrium</title>
<rect x="993" y="417" width="44" height="52" rx="3" fill="#c98a00" stroke="white" stroke-width="1.5"/>
<text x="997" y="429" font-size="9" fill="white">107</text>
<text x="1015.0" y="452" text-anchor="middle" font-size="20" font-weight="700" fill="white">Bh</text>
</g>
<g><title>108: Hassium</title>
<rect x="1039" y="417" width="44" height="52" rx="3" fill="#c98a00" stroke="white" stroke-width="1.5"/>
<text x="1043" y="429" font-size="9" fill="white">108</text>
<text x="1061.0" y="452" text-anchor="middle" font-size="20" font-weight="700" fill="white">Hs</text>
</g>
<g><title>109: Meitnerium</title>
<rect x="1085" y="417" width="44" height="52" rx="3" fill="#c98a00" stroke="white" stroke-width="1.5"/>
<text x="1089" y="429" font-size="9" fill="white">109</text>
<text x="1107.0" y="452" text-anchor="middle" font-size="20" font-weight="700" fill="white">Mt</text>
</g>
<g><title>110: Darmstadtium</title>
<rect x="1131" y="417" width="44" height="52" rx="3" fill="#c98a00" stroke="white" stroke-width="1.5"/>
<text x="1135" y="429" font-size="9" fill="white">110</text>
<text x="1153.0" y="452" text-anchor="middle" font-size="20" font-weight="700" fill="white">Ds</text>
</g>
<g><title>111: Roentgenium</title>
<rect x="1177" y="417" width="44" height="52" rx="3" fill="#c98a00" stroke="white" stroke-width="1.5"/>
<text x="1181" y="429" font-size="9" fill="white">111</text>
<text x="1199.0" y="452" text-anchor="middle" font-size="20" font-weight="700" fill="white">Rg</text>
</g>
<g><title>112: Copernicium</title>
<rect x="1223" y="417" width="44" height="52" rx="3" fill="#c98a00" stroke="white" stroke-width="1.5"/>
<text x="1227" y="429" font-size="9" fill="white">112</text>
<text x="1245.0" y="452" text-anchor="middle" font-size="20" font-weight="700" fill="white">Cn</text>
</g>
<g><title>113: Nihonium</title>
<rect x="1269" y="417" width="44" height="52" rx="3" fill="#30a8b1" stroke="white" stroke-width="1.5"/>
<text x="1273" y="429" font-size="9" fill="white">113</text>
<text x="1291.0" y="452" text-anchor="middle" font-size="20" font-weight="700" fill="white">Nh</text>
</g>
<g><title>114: Flerovium</title>
<rect x="1315" y="417" width="44" height="52" rx="3" fill="#30a8b1" stroke="white" stroke-width="1.5"/>
<text x="1319" y="429" font-size="9" fill="white">114</text>
<text x="1337.0" y="452" text-anchor="middle" font-size="20" font-weight="700" fill="white">Fl</text>
</g>
<g><title>115: Moscovium</title>
<rect x="1361" y="417" width="44" height="52" rx="3" fill="#30a8b1" stroke="white" stroke-width="1.5"/>
<text x="1365" y="429" font-size="9" fill="white">115</text>
<text x="1383.0" y="452" text-anchor="middle" font-size="20" font-weight="700" fill="white">Mc</text>
</g>
<g><title>116: Livermorium</title>
<rect x="1407" y="417" width="44" height="52" rx="3" fill="#30a8b1" stroke="white" stroke-width="1.5"/>
<text x="1411" y="429" font-size="9" fill="white">116</text>
<text x="1429.0" y="452" text-anchor="middle" font-size="20" font-weight="700" fill="white">Lv</text>
</g>
<g><title>117: Tennessine</title>
<rect x="1453" y="417" width="44" height="52" rx="3" fill="#30a8b1" stroke="white" stroke-width="1.5"/>
<text x="1457" y="429" font-size="9" fill="white">117</text>
<text x="1475.0" y="452" text-anchor="middle" font-size="20" font-weight="700" fill="white">Ts</text>
</g>
<g><title>118: Oganesson</title>
<rect x="1499" y="417" width="44" height="52" rx="3" fill="#30a8b1" stroke="white" stroke-width="1.5"/>
<text x="1503" y="429" font-size="9" fill="white">118</text>
<text x="1521.0" y="452" text-anchor="middle" font-size="20" font-weight="700" fill="white">Og</text>
</g>
<rect x="522.0" y="493" width="18" height="18" rx="3" fill="#4269d0"/>
<text x="548.0" y="507" font-size="13" fill="#333">s-block</text>
<rect x="654.0" y="493" width="18" height="18" rx="3" fill="#9475cd"/>
<text x="680.0" y="507" font-size="13" fill="#333">f-block</text>
<rect x="786.0" y="493" width="18" height="18" rx="3" fill="#c98a00"/>
<text x="812.0" y="507" font-size="13" fill="#333">d-block</text>
<rect x="918.0" y="493" width="18" height="18" rx="3" fill="#30a8b1"/>
<text x="944.0" y="507" font-size="13" fill="#333">p-block</text>
</g>
</svg>
